<svg viewBox="0 332.362 60 90" xmlns="http://www.w3.org/2000/svg">
<rect xmlns="http://www.w3.org/2000/svg" width="60" height="90" rx="10" ry="10" y="332.362" style="fill:#fff;fill-opacity:1;fill-rule:evenodd;stroke:#000;stroke-width:.5;stroke-miterlimit:4;stroke-dasharray:none"/>
<rect xmlns="http://www.w3.org/2000/svg" width="50" height="80" rx="5" ry="5" x="5" y="337.362" style="fill:#f55;fill-opacity:1;fill-rule:evenodd;stroke:none"/>
<path xmlns="http://www.w3.org/2000/svg" d="M45 352.362c-22.091 0-40 17.909-40 40 0 5.523 4.477 10 10 10 22.091 0 40-17.908 40-40 0-5.523-4.477-10-10-10" style="fill:#fff;fill-opacity:1;fill-rule:evenodd;stroke:none"/>
<path xmlns="http://www.w3.org/2000/svg" d="M30 362.362c-5.523 0-10 4.477-10 10v10c0 5.523 4.477 10 10 10s10-4.477 10-10v-10c0-5.523-4.477-10-10-10m0 5a5 5 0 0 1 5 5v10a5 5 0 0 1-10 0v-10a5 5 0 0 1 5-5" style="fill:#f55;fill-opacity:1;fill-rule:evenodd;stroke:none"/>
<path xmlns="http://www.w3.org/2000/svg" d="M12.5 339.862a5 5 0 0 0-5 5v5a5 5 0 1 0 10 0v-5a5 5 0 0 0-5-5m0 2.5a2.5 2.5 0 0 1 2.5 2.5v5a2.5 2.5 0 0 1-5 0v-5a2.5 2.5 0 0 1 2.5-2.5m35 57.5a5 5 0 0 0-5 5v5a5 5 0 1 0 10 0v-5a5 5 0 0 0-5-5m0 2.5a2.5 2.5 0 0 1 2.5 2.5v5a2.5 2.5 0 0 1-5 0v-5a2.5 2.5 0 0 1 2.5-2.5" style="fill:#fff;fill-opacity:1;fill-rule:evenodd;stroke:none"/>
</svg>